<?xml version="1.0" encoding="utf-8"?>
<!-- Generator: Adobe Illustrator 16.0.0, SVG Export Plug-In . SVG Version: 6.00 Build 0)  -->
<!DOCTYPE svg PUBLIC "-//W3C//DTD SVG 1.1//EN" "http://www.w3.org/Graphics/SVG/1.1/DTD/svg11.dtd">
<svg version="1.1" id="Layer_1" xmlns="http://www.w3.org/2000/svg" xmlns:xlink="http://www.w3.org/1999/xlink" x="0px" y="0px"
	 width="394.5px" height="317px" viewBox="0 376.5 394.5 317" enable-background="new 0 376.5 394.5 317" xml:space="preserve">
<g id="Layer_1_1_">
	<path fill="#E02926" d="M331.721,561.452c-4.745,8.222-5.136,17.747-1.915,25.946l-0.084-0.049
		c3.191,8.183,2.788,17.68-1.944,25.878c-4.732,8.195-12.757,13.292-21.439,14.62l0.094,0.055
		c-8.716,1.309-16.775,6.409-21.524,14.634c-8.272,14.329-3.363,32.654,10.967,40.928c14.33,8.272,32.655,3.362,40.928-10.967
		c4.748-8.225,5.136-17.757,1.912-25.956l0.094,0.052c-3.191-8.183-2.791-17.679,1.941-25.878
		c4.732-8.195,12.756-13.292,21.439-14.62l-0.084-0.048c8.709-1.312,16.765-6.412,21.51-14.634
		c8.273-14.329,3.363-32.655-10.967-40.928C358.319,542.213,339.994,547.123,331.721,561.452 M50.832,399.282
		c-4.745,8.221-5.133,17.748-1.916,25.946l-0.081-0.049c3.188,8.183,2.785,17.68-1.948,25.875
		c-4.732,8.198-12.756,13.295-21.439,14.623l0.094,0.055c-8.712,1.306-16.775,6.409-21.523,14.63
		c-8.273,14.333-3.363,32.655,10.967,40.928c14.333,8.276,32.655,3.366,40.931-10.964c4.746-8.224,5.133-17.757,1.909-25.955
		l0.094,0.052c-3.191-8.183-2.791-17.679,1.945-25.878c4.732-8.198,12.756-13.292,21.436-14.623l-0.084-0.049
		c8.709-1.308,16.765-6.408,21.51-14.63c8.276-14.33,3.366-32.655-10.967-40.928C77.43,380.043,59.108,384.95,50.832,399.282
		 M284.908,480.366c-4.749,8.224-5.181,17.73-1.958,25.929c3.188,8.183,2.743,17.654-1.993,25.853
		c-4.732,8.195-12.711,13.318-21.391,14.649c-8.712,1.308-16.727,6.435-21.475,14.655c-4.749,8.225-5.181,17.729-1.958,25.93
		c3.191,8.183,2.742,17.653-1.99,25.852c-4.732,8.195-12.711,13.319-21.395,14.646c-8.712,1.309-16.726,6.435-21.472,14.659
		c-8.276,14.329-3.366,32.655,10.967,40.928c14.33,8.272,32.652,3.362,40.928-10.967c4.746-8.221,5.178-17.728,1.958-25.927
		c-3.191-8.182-2.746-17.653,1.987-25.852c4.732-8.195,12.711-13.321,21.394-14.649c8.712-1.309,16.727-6.435,21.475-14.659
		c4.749-8.221,5.178-17.725,1.958-25.923c-3.191-8.183-2.743-17.656,1.99-25.852c4.733-8.199,12.711-13.322,21.391-14.649
		c8.715-1.309,16.729-6.438,21.479-14.659c8.272-14.333,3.362-32.655-10.967-40.931
		C311.503,461.126,293.181,466.036,284.908,480.366 M144.461,399.282c-4.749,8.221-5.181,17.728-1.958,25.927
		c3.191,8.182,2.743,17.653-1.99,25.852s-12.711,13.322-21.394,14.649c-8.712,1.309-16.727,6.435-21.472,14.656
		c-4.749,8.224-5.182,17.73-1.958,25.929c3.191,8.183,2.742,17.654-1.99,25.853c-4.732,8.195-12.714,13.318-21.394,14.649
		c-8.712,1.308-16.727,6.435-21.475,14.655c-8.272,14.33-3.362,32.655,10.967,40.928c14.333,8.272,32.655,3.363,40.928-10.967
		c4.749-8.221,5.182-17.725,1.958-25.923c-3.188-8.183-2.742-17.656,1.99-25.852c4.732-8.199,12.711-13.322,21.394-14.649
		c8.712-1.309,16.727-6.438,21.475-14.659c4.745-8.225,5.178-17.728,1.958-25.927c-3.192-8.182-2.746-17.653,1.986-25.852
		c4.736-8.198,12.711-13.321,21.394-14.649c8.712-1.309,16.73-6.435,21.475-14.659c8.276-14.329,3.366-32.655-10.967-40.928
		C171.06,380.043,152.737,384.95,144.461,399.282 M279.019,388.315c14.33,8.273,19.24,26.598,10.967,40.928
		c-4.745,8.225-12.808,13.325-21.52,14.634l0.09,0.051c-8.68,1.328-16.704,6.426-21.436,14.624
		c-4.736,8.195-5.136,17.695-1.945,25.878l-0.09-0.052c3.221,8.198,2.833,17.728-1.913,25.952
		c-4.745,8.218-12.801,13.318-21.51,14.63l0.084,0.048c-8.683,1.328-16.707,6.426-21.439,14.624
		c-4.732,8.195-5.136,17.695-1.945,25.878l-0.09-0.055c3.224,8.201,2.836,17.73-1.912,25.955s-12.812,13.328-21.527,14.633
		l0.094,0.055c-8.68,1.328-16.704,6.426-21.436,14.624c-4.732,8.195-5.136,17.695-1.945,25.878l-0.087-0.049
		c3.22,8.195,2.833,17.725-1.916,25.945c-8.273,14.33-26.595,19.24-40.928,10.968c-14.33-8.273-19.24-26.599-10.967-40.928
		c4.748-8.222,12.805-13.322,21.517-14.634l-0.087-0.048c8.68-1.328,16.704-6.426,21.436-14.624
		c4.735-8.198,5.136-17.695,1.945-25.878l0.097,0.055c-3.227-8.201-2.839-17.733,1.909-25.958s12.811-13.325,21.523-14.633
		l-0.094-0.056c8.683-1.327,16.707-6.425,21.439-14.62c4.732-8.198,5.133-17.695,1.944-25.878l0.084,0.049
		c-3.22-8.198-2.83-17.725,1.916-25.945c4.746-8.222,12.808-13.322,21.521-14.631l-0.091-0.055
		c8.68-1.327,16.704-6.425,21.437-14.62c4.732-8.198,5.136-17.695,1.944-25.878l0.09,0.052c-3.22-8.198-2.836-17.731,1.913-25.952
		C246.364,384.95,264.689,380.043,279.019,388.315"/>
</g>
</svg>
