<?xml version="1.0" encoding="utf-8"?>
<!-- Generator: Adobe Illustrator 16.0.0, SVG Export Plug-In . SVG Version: 6.00 Build 0)  -->
<!DOCTYPE svg PUBLIC "-//W3C//DTD SVG 1.1//EN" "http://www.w3.org/Graphics/SVG/1.1/DTD/svg11.dtd">
<svg version="1.1"
	 id="svg3522" xmlns:dc="http://purl.org/dc/elements/1.1/" xmlns:cc="http://creativecommons.org/ns#" xmlns:rdf="http://www.w3.org/1999/02/22-rdf-syntax-ns#" xmlns:svg="http://www.w3.org/2000/svg" xmlns:sodipodi="http://sodipodi.sourceforge.net/DTD/sodipodi-0.dtd" xmlns:inkscape="http://www.inkscape.org/namespaces/inkscape" inkscape:version="0.91 r13725" sodipodi:docname="logo.svg"
	 xmlns="http://www.w3.org/2000/svg" xmlns:xlink="http://www.w3.org/1999/xlink" x="0px" y="0px" width="177.602px"
	 height="48.8px" viewBox="0 0 177.602 48.8" enable-background="new 0 0 177.602 48.8" xml:space="preserve">
<sodipodi:namedview  id="base" pagecolor="#ffffff" bordercolor="#666666" borderopacity="1.0" inkscape:zoom="2.8" inkscape:cx="138.06096" inkscape:cy="17.963121" showgrid="false" fit-margin-top="0" fit-margin-left="0" inkscape:pageshadow="2" fit-margin-right="0" inkscape:window-width="1920" inkscape:window-height="1015" inkscape:pageopacity="0.0" inkscape:window-x="0" inkscape:window-y="0" inkscape:window-maximized="1" inkscape:document-units="px" inkscape:current-layer="layer1" fit-margin-bottom="0">
	</sodipodi:namedview>
<g id="layer1" transform="translate(-43.28551,-410.43363)" inkscape:label="Calque 1" inkscape:groupmode="layer">
	<g id="g4469" transform="translate(-621.55272,-186.17892)">
		<g id="g4463">
			<path id="path3118" inkscape:connector-curvature="0" sodipodi:nodetypes="cczzccssccc" fill="#FFFFFF" d="M752.838,641.413
				v-31.2c0,0,11.201,0,15.601,0c4.398,0,8.398,4,8.399,8.4c0,4.399,0,22.8,0,22.8h-5.601c0,0,0-14.4,0-21.6c0-2.175-1.601-4-4-4
				c-2.935,0-8.801,0-8.801,0v29.6L752.838,641.413z"/>
			<path id="path3120" inkscape:connector-curvature="0" sodipodi:nodetypes="ccccc" fill="#FFFFFF" d="M787.238,641.413v-31.2
				h5.601v31.2H787.238z"/>
			<path id="path3122" inkscape:connector-curvature="0" sodipodi:nodetypes="ccccc" fill="#FFFFFF" d="M787.238,603.012h5.601v-6.4
				l-5.601,4V603.012z"/>
			<path id="path3124" inkscape:connector-curvature="0" sodipodi:nodetypes="cccssccsscccccc" fill="#FFFFFF" d="M808.839,641.413
				h-5.601v-31.2h30.801c4.8,0,8.398,3.6,8.398,8.4v22.8l-5.6,4l-0.001-25.6c0-2.4-1.6-4-4-4h-7.199v25.6h-5.6v-25.6h-11.2
				L808.839,641.413L808.839,641.413z"/>
		</g>
		<g id="g4459">
			<path id="path3054" inkscape:connector-curvature="0" sodipodi:nodetypes="ccccccccccccccccc" d="M700.721,596.613
				c0,0-2.728,2.156-5.509,4.297c-2.861-0.091-8.473,0.55-11.514,1.656c-2.802-1.774-5.263-3.734-5.263-3.734
				s-2.103,3.618-3.426,5.742c-1.961,1.043-3.931,2.216-5.686,3.769c-2.042-0.811-4.408-1.799-4.485-1.832
				c2.704,5.453,4.521,10.913,9.465,14.195c7.872-12.431,44.448-11.286,52.482-0.07c5.191-2.708,7.211-8.535,9.253-13.914
				c-0.225,0.074-3.002,1.004-4.803,1.691c-1.076-1.171-3.61-2.971-5.051-3.839c-1.366-2.502-3.354-5.883-3.354-5.883
				s-2.355,1.752-5.085,3.664c-3.688-0.681-8.15-1.508-11.902-1.303C703.287,598.951,700.721,596.613,700.721,596.613
				L700.721,596.613z"/>
			
				<path id="path3051" inkscape:connector-curvature="0" sodipodi:nodetypes="cccccccccc" fill="none" stroke="#050505" stroke-miterlimit="10" d="
				M667.634,611.846c0,0,3.832,11.633,6.493,18.081c11.276,14.879,40.074,15.912,52.628,0.289
				c2.971-6.694,6.448-17.037,6.448-17.037c-3.222,4.771-7.933,8.998-11.16,10.771c-2.294,1.256-7.587,2.016-7.587,2.016
				l-13.896-7.201l-13.976,7.058c0,0-5.222-0.839-7.586-1.943C674.226,621.331,671.017,615.966,667.634,611.846L667.634,611.846z"/>
		</g>
	</g>
</g>
</svg>
