<svg xmlns="http://www.w3.org/2000/svg" width="394.5" height="317" viewBox="0 376.5 394.5 317" enable-background="new 0 376.5 394.5 317"><path fill="#E02926" d="M331.721 561.452c-4.745 8.222-5.136 17.747-1.915 25.946l-.084-.049c3.191 8.183 2.788 17.68-1.944 25.878-4.732 8.195-12.757 13.292-21.439 14.62l.094.055c-8.716 1.309-16.775 6.409-21.524 14.634-8.272 14.329-3.363 32.654 10.967 40.928 14.33 8.272 32.655 3.362 40.928-10.967 4.748-8.225 5.136-17.757 1.912-25.956l.094.052c-3.191-8.183-2.791-17.679 1.941-25.878 4.732-8.195 12.756-13.292 21.439-14.62l-.084-.048c8.709-1.312 16.765-6.412 21.51-14.634 8.273-14.329 3.363-32.655-10.967-40.928-14.33-8.272-32.655-3.362-40.928 10.967m-280.889-162.17c-4.745 8.221-5.133 17.748-1.916 25.946l-.081-.049c3.188 8.183 2.785 17.68-1.948 25.875-4.732 8.198-12.756 13.295-21.439 14.623l.094.055c-8.712 1.306-16.775 6.409-21.523 14.63-8.273 14.333-3.363 32.655 10.967 40.928 14.333 8.276 32.655 3.366 40.931-10.964 4.746-8.224 5.133-17.757 1.909-25.955l.094.052c-3.191-8.183-2.791-17.679 1.945-25.878 4.732-8.198 12.756-13.292 21.436-14.623l-.084-.049c8.709-1.308 16.765-6.408 21.51-14.63 8.276-14.33 3.366-32.655-10.967-40.928-14.33-8.272-32.652-3.365-40.928 10.967m234.076 81.084c-4.749 8.224-5.181 17.73-1.958 25.929 3.188 8.183 2.743 17.654-1.993 25.853-4.732 8.195-12.711 13.318-21.391 14.649-8.712 1.308-16.727 6.435-21.475 14.655-4.749 8.225-5.181 17.729-1.958 25.93 3.191 8.183 2.742 17.653-1.99 25.852-4.732 8.195-12.711 13.319-21.395 14.646-8.712 1.309-16.726 6.435-21.472 14.659-8.276 14.329-3.366 32.655 10.967 40.928 14.33 8.272 32.652 3.362 40.928-10.967 4.746-8.221 5.178-17.728 1.958-25.927-3.191-8.182-2.746-17.653 1.987-25.852 4.732-8.195 12.711-13.321 21.394-14.649 8.712-1.309 16.727-6.435 21.475-14.659 4.749-8.221 5.178-17.725 1.958-25.923-3.191-8.183-2.743-17.656 1.99-25.852 4.733-8.199 12.711-13.322 21.391-14.649 8.715-1.309 16.729-6.438 21.479-14.659 8.272-14.333 3.362-32.655-10.967-40.931-14.333-8.273-32.655-3.363-40.928 10.967m-140.447-81.084c-4.749 8.221-5.181 17.728-1.958 25.927 3.191 8.182 2.743 17.653-1.99 25.852s-12.711 13.322-21.394 14.649c-8.712 1.309-16.727 6.435-21.472 14.656-4.749 8.224-5.182 17.73-1.958 25.929 3.191 8.183 2.742 17.654-1.99 25.853-4.732 8.195-12.714 13.318-21.394 14.649-8.712 1.308-16.727 6.435-21.475 14.655-8.272 14.33-3.362 32.655 10.967 40.928 14.333 8.272 32.655 3.363 40.928-10.967 4.749-8.221 5.182-17.725 1.958-25.923-3.188-8.183-2.742-17.656 1.99-25.852 4.732-8.199 12.711-13.322 21.394-14.649 8.712-1.309 16.727-6.438 21.475-14.659 4.745-8.225 5.178-17.728 1.958-25.927-3.192-8.182-2.746-17.653 1.986-25.852 4.736-8.198 12.711-13.321 21.394-14.649 8.712-1.309 16.73-6.435 21.475-14.659 8.276-14.329 3.366-32.655-10.967-40.928-14.328-8.272-32.651-3.365-40.927 10.967m134.558-10.967c14.33 8.273 19.24 26.598 10.967 40.928-4.745 8.225-12.808 13.325-21.52 14.634l.09.051c-8.68 1.328-16.704 6.426-21.436 14.624-4.736 8.195-5.136 17.695-1.945 25.878l-.09-.052c3.221 8.198 2.833 17.728-1.913 25.952-4.745 8.218-12.801 13.318-21.51 14.63l.084.048c-8.683 1.328-16.707 6.426-21.439 14.624-4.732 8.195-5.136 17.695-1.945 25.878l-.09-.055c3.224 8.201 2.836 17.73-1.912 25.955s-12.812 13.328-21.527 14.633l.094.055c-8.68 1.328-16.704 6.426-21.436 14.624-4.732 8.195-5.136 17.695-1.945 25.878l-.087-.049c3.22 8.195 2.833 17.725-1.916 25.945-8.273 14.33-26.595 19.24-40.928 10.968-14.33-8.273-19.24-26.599-10.967-40.928 4.748-8.222 12.805-13.322 21.517-14.634l-.087-.048c8.68-1.328 16.704-6.426 21.436-14.624 4.735-8.198 5.136-17.695 1.945-25.878l.097.055c-3.227-8.201-2.839-17.733 1.909-25.958s12.811-13.325 21.523-14.633l-.094-.056c8.683-1.327 16.707-6.425 21.439-14.62 4.732-8.198 5.133-17.695 1.944-25.878l.084.049c-3.22-8.198-2.83-17.725 1.916-25.945 4.746-8.222 12.808-13.322 21.521-14.631l-.091-.055c8.68-1.327 16.704-6.425 21.437-14.62 4.732-8.198 5.136-17.695 1.944-25.878l.09.052c-3.22-8.198-2.836-17.731 1.913-25.952 8.273-14.332 26.598-19.239 40.928-10.967"/></svg>