<svg xmlns="http://www.w3.org/2000/svg" width="62.653mm" height="17.216mm" viewBox="0 0 222.0004 60.999998"><path d="M110 56v-39h19.5c5.5 0 10.5 5 10.5 10.5v28.5h-7v-27c0-2.719-2-5-5-5h-11v37zm43.001 0v-39h7v39zm0-48h7v-8l-7 5zm27 48h-7v-39h38.5c6 0 10.5 4.5 10.5 10.5v28.5l-7 5v-32c0-3-2-5-5-5h-9v32h-7v-32h-14z" fill="#fff"/><path d="M44.853 0s-3.41 2.695-6.887 5.372c-3.576-.114-10.591.687-14.392 2.069-3.501-2.218-6.578-4.667-6.578-4.667s-2.629 4.523-4.282 7.177c-2.452 1.304-4.914 2.771-7.108 4.711-2.552-1.013-5.51-2.249-5.607-2.29 3.379 6.816 5.651 13.642 11.831 17.744 9.839-15.539 55.56-14.107 65.602-.088 6.49-3.385 9.014-10.668 11.566-17.392-.28.092-3.753 1.255-6.004 2.113-1.344-1.463-4.512-3.713-6.313-4.799-1.708-3.128-4.194-7.353-4.194-7.353s-2.944 2.19-6.357 4.579c-4.611-.851-10.187-1.885-14.877-1.629-3.193-2.624-6.401-5.548-6.401-5.548z" fill="#f3d400"/><path d="M3.494 26.858s4.79 11.598 8.117 19.657c14.096 18.597 50.092 19.89 65.785.36 3.713-8.369 8.723-20.13 8.723-20.13-4.026 5.964-10.578 10.081-14.613 12.299-2.867 1.571-9.483 2.52-9.483 2.52l-17.37-9.001-17.469 8.821s-6.528-1.049-9.483-2.43c-5.965-3.184-9.976-6.946-14.206-12.096z" fill="#ffe953"/></svg>