<svg xmlns="http://www.w3.org/2000/svg" width="177.602" height="48.8" viewBox="0 0 177.602 48.8"><path d="M88 44.8v-31.2h15.601c4.398 0 8.398 4 8.399 8.4v22.8h-5.601v-21.6c0-2.175-1.601-4-4-4h-8.801v29.6l-5.598-4zm34.4 0v-31.2h5.601v31.2h-5.601zm0-38.401h5.601v-6.4l-5.601 4v2.4zm21.601 38.401h-5.601v-31.2h30.801c4.8 0 8.398 3.6 8.398 8.4v22.8l-5.6 4-.001-25.6c0-2.4-1.6-4-4-4h-7.199v25.6h-5.6v-25.6h-11.2l.002 25.6z" fill="#fff"/><path d="M35.883 0s-2.728 2.156-5.509 4.297c-2.861-.091-8.473.55-11.514 1.656-2.802-1.774-5.263-3.734-5.263-3.734s-2.103 3.618-3.426 5.742c-1.961 1.043-3.931 2.216-5.686 3.769-2.042-.811-4.408-1.799-4.485-1.832 2.704 5.453 4.521 10.913 9.465 14.195 7.872-12.431 44.448-11.286 52.482-.07 5.191-2.708 7.211-8.535 9.253-13.914-.225.074-3.002 1.004-4.803 1.691-1.076-1.171-3.61-2.971-5.051-3.839-1.366-2.502-3.354-5.883-3.354-5.883s-2.355 1.752-5.085 3.664c-3.688-.681-8.15-1.508-11.902-1.303-2.556-2.101-5.122-4.439-5.122-4.439z"/><path stroke="#050505" stroke-miterlimit="10" d="M2.796 15.233s3.832 11.633 6.493 18.081c11.276 14.879 40.074 15.912 52.628.289 2.971-6.694 6.448-17.037 6.448-17.037-3.222 4.771-7.933 8.998-11.16 10.771-2.294 1.256-7.587 2.016-7.587 2.016l-13.896-7.201-13.976 7.058s-5.222-.839-7.586-1.943c-4.772-2.549-7.981-7.914-11.364-12.034z" fill="none"/></svg>