<svg xmlns="http://www.w3.org/2000/svg" width="177.602" height="48.8" viewBox="0 0 177.602 48.8"><path d="M88 44.8V13.6h15.6c4.399 0 8.399 4 8.4 8.4v22.8h-5.601V23.2c0-2.175-1.601-4-4-4h-8.801v29.6L88 44.8zm34.4 0V13.6h5.6v31.2h-5.6zm0-38.4h5.6V0l-5.6 4v2.4zM144 44.8h-5.6V13.6h30.8c4.8 0 8.399 3.6 8.399 8.4v22.8l-5.6 4-.001-25.6c0-2.4-1.6-4-4-4h-7.2v25.6h-5.6V19.2h-11.2l.003 25.6z" fill="#FFF"/><path d="M35.883 0s-2.728 2.156-5.51 4.297c-2.86-.09-8.472.55-11.513 1.656-2.802-1.774-5.263-3.734-5.263-3.734s-2.103 3.618-3.426 5.742c-1.961 1.043-3.931 2.216-5.686 3.77A306.179 306.179 0 0 1 0 9.897C2.704 15.35 4.52 20.81 9.465 24.092c7.872-12.43 44.448-11.286 52.482-.07 5.19-2.708 7.21-8.535 9.253-13.914-.225.074-3.002 1.004-4.803 1.691-1.076-1.17-3.61-2.97-5.051-3.839-1.366-2.502-3.354-5.883-3.354-5.883s-2.355 1.752-5.085 3.664c-3.688-.68-8.15-1.508-11.902-1.303A150.423 150.423 0 0 1 35.883 0z"/><path fill="none" stroke="#050505" stroke-miterlimit="10" d="M2.796 15.233s3.832 11.633 6.493 18.081c11.276 14.88 40.074 15.912 52.628.29 2.97-6.695 6.448-17.038 6.448-17.038-3.222 4.771-7.933 8.998-11.16 10.771-2.294 1.256-7.587 2.016-7.587 2.016l-13.896-7.2-13.976 7.057s-5.222-.839-7.586-1.943c-4.772-2.549-7.981-7.914-11.364-12.034z"/></svg>