<svg xmlns="http://www.w3.org/2000/svg" xmlns:xlink="http://www.w3.org/1999/xlink" width="622" height="556" viewBox="0 0 622 556"><switch><g><path d="M11 420.5l300 118.962V222.5l-300-102z"/><path fill="#1E1E1E" d="M311 539.462L611 420.5v-300l-300 102z"/><path fill="#36353A" d="M11.5 120.5l300 102 300-102-300-99z"/><path fill="#FFF" d="M446 256s9.417-11 12.75-10c8.685 2.605 20.832 7.738 25.458 3.333 7-6.666 15.375-10.332 15.375-10.332l-.12-80.432L446 176.696V256z"/><path fill="#FFF" d="M446.217 176.696L145.728 76.205 199.5 58.5l300.031 100.068z"/><defs><path id="a" d="M-200-290H824V734H-200z"/></defs><clipPath id="b"><use xlink:href="#a" overflow="visible"/></clipPath><path clip-path="url(#b)" fill="#FFF" d="M207.863 335.645c-5.208-25.282-31.401-51.89-61.099-58.301-28.645-6.183-50.483 8.028-54.694 28.576l-4.976 5.319-6.959-22.673-5.296-36.224 9.115 7.856c2.522-3.445 4.328-6.173 10.851-10.389l6.31-18.814 10.831 14.854c7.422-1.254 14.911-2.663 23.656-.49l11.162-13.812 11.407 18.037c9.29 1.183 17.508 5.681 25.902 10.12l12.718-11.554 7.679 23.526c8.159 7.842 10.459 11.815 13.7 17.004l12.018-4.319-7.042 38.823-9.007 21.518-6.276-9.057z"/><path clip-path="url(#b)" fill="#FFF" d="M215.206 339.562l-7.343-4.591-12.975 19.965-17.294 2.406-30.829-33.566-29.11 16.536-14.95-10.949-10.635-24.046-5.811.909-6.123-18.256 11.934 55.921c8.609 30.257 36.094 53.133 54.695 59.392 19.288 6.492 50.55 2.067 61.098-25.222l15.284-55.56-7.941 17.061z"/></g></switch></svg>