<svg xmlns="http://www.w3.org/2000/svg" xmlns:xlink="http://www.w3.org/1999/xlink" width="622" height="556" viewBox="0 0 622 556"><path d="M11 420.5l300 118.962v-316.962l-300-102z"/><path fill="#1E1E1E" d="M311 539.462l300-118.962v-300l-300 102z"/><path fill="#36353A" d="M11.5 120.5l300 102 300-102-300-99z"/><path fill="#fff" d="M446 256s9.417-11 12.75-10c8.685 2.605 20.832 7.738 25.458 3.333 7-6.666 15.375-10.332 15.375-10.332l-.12-80.432-53.463 18.127v79.304zm.217-79.304l-300.489-100.491 53.772-17.705 300.031 100.068z"/><defs><path id="a" d="M-200-290h1024v1024h-1024z"/></defs><clipPath id="b"><use xlink:href="#a" overflow="visible"/></clipPath><path clip-path="url(#b)" fill="#fff" d="M207.863 335.645c-5.208-25.281-31.401-51.89-61.099-58.301-28.645-6.183-50.483 8.028-54.694 28.576l-4.976 5.318-6.959-22.672-5.296-36.225 9.115 7.856c2.522-3.445 4.328-6.173 10.851-10.389l6.31-18.814 10.831 14.854c7.422-1.254 14.911-2.663 23.656-.49l11.162-13.812 11.407 18.037c9.29 1.183 17.508 5.681 25.902 10.12l12.718-11.554 7.679 23.526c8.159 7.842 10.459 11.815 13.7 17.004l12.018-4.318-7.042 38.822-9.007 21.519-6.276-9.057z"/><defs><path id="c" d="M-200-290h1024v1024h-1024z"/></defs><clipPath id="d"><use xlink:href="#c" overflow="visible"/></clipPath><path clip-path="url(#d)" fill="#fff" d="M215.206 339.562l-7.343-4.592-12.975 19.965-17.294 2.406-30.829-33.566-29.11 16.537-14.95-10.949-10.635-24.047-5.811.91-6.123-18.256 11.934 55.92c8.609 30.258 36.094 53.134 54.695 59.393 19.288 6.492 50.55 2.066 61.098-25.223l15.284-55.56-7.941 17.062z"/></svg>