<svg xmlns="http://www.w3.org/2000/svg" width="846.084" height="783.079" viewBox="88.277 19.269 846.084 783.079" enable-background="new 88.277 19.269 846.084 783.079"><path d="M249.76 363.68c-21.76 0-39.36 17.6-39.36 39.36s17.6 39.36 39.36 39.36c21.76 0 39.36-17.601 39.36-39.36 0-21.6-17.6-39.36-39.36-39.36zm0 52.48c-7.2 0-13.12-5.92-13.12-13.12s5.92-13.12 13.12-13.12c7.2 0 13.12 5.92 13.12 13.12s-5.92 13.12-13.12 13.12zm428.48-202.08c2.72-11.04 4.16-22.4 4.16-33.92 0-79.52-64.64-144.16-144.16-144.16-79.521 0-144.16 64.64-144.16 144.16 0 9.44.96 18.72 2.72 27.68-11.68 2.72-23.36 5.6-34.399 8.96-26.721-39.04-71.36-62.88-118.88-62.88-41.76 0-83.36 21.6-83.36 21.6l32.8 12.32c33.12 12.48 58.88 38.88 70.24 72-47.68 28.48-84.32 64.16-106.56 104h-51.041v183.36h50.88c28 50.08 79.2 93.76 145.76 124.319v111.681h157.28v-69.28c40 4.48 78.561 4.96 117.921 1.44v67.84h157.279v-105.76c115.2-48.16 183.68-130.56 183.68-221.92 0-106.88-93.92-200.48-240.16-241.44zm-140-151.84c65.12 0 117.92 52.96 117.92 117.92 0 29.28-10.561 57.12-30.08 78.72h-74.72v-15.52c15.199-5.44 26.239-19.84 26.239-36.96 0-21.76-17.6-39.36-39.359-39.36-7.2 0-13.12-5.92-13.12-13.12 0-7.2 5.92-13.12 13.12-13.12 7.199 0 13.12 5.92 13.12 13.12h26.24c0-17.12-11.04-31.52-26.239-36.96v-15.52h-26.24v15.52c-15.2 5.44-26.24 19.84-26.24 36.96 0 21.76 17.601 39.36 39.36 39.36 7.2 0 13.12 5.92 13.12 13.12 0 7.2-5.92 13.12-13.12 13.12s-13.12-5.92-13.12-13.12h-26.24c0 17.12 11.04 31.52 26.24 36.96v15.52h-74.88c-19.36-21.6-30.08-49.28-30.08-78.72-.001-65.12 52.959-117.92 118.079-117.92zm178.72 594.24l-8.32 3.359v97.28h-104.8v-70.88l-14.56 1.6c-46.88 5.28-92.96 4.96-140.96-1.76l-14.881-2.079v72.96h-104.8v-102.56l-7.84-3.36c-68-29.6-119.36-73.12-144.48-122.72l-3.68-7.2h-40.8v-131.04h40.64s30.4-72.32 112.48-112.48l8.8-4.96-2.4-9.76c-8.48-33.6-28.8-62.72-56.64-82.24 44.48-3.2 88 19.68 110.56 58.4l5.279 9.12s38.561-11.52 53.601-15.04c3.52 8.96 8 17.6 13.28 25.76h-23.36v26.24h288.48v-26.24h-23.359c4.16-6.4 7.68-12.96 10.72-19.84 133.44 37.12 222.4 123.04 222.4 216.64-.16 82.08-65.6 157.28-175.36 200.8z"/></svg>