<?xml version="1.0" encoding="utf-8"?>
<!-- Generator: Adobe Illustrator 16.0.0, SVG Export Plug-In . SVG Version: 6.00 Build 0)  -->
<!DOCTYPE svg PUBLIC "-//W3C//DTD SVG 1.1//EN" "http://www.w3.org/Graphics/SVG/1.1/DTD/svg11.dtd">
<svg version="1.1" id="Layer_1" xmlns="http://www.w3.org/2000/svg" xmlns:xlink="http://www.w3.org/1999/xlink" x="0px" y="0px"
	 width="846.084px" height="783.079px" viewBox="88.277 19.269 846.084 783.079"
	 enable-background="new 88.277 19.269 846.084 783.079" xml:space="preserve">
<g>
	<path d="M249.76,363.68c-21.76,0-39.36,17.6-39.36,39.36s17.6,39.36,39.36,39.36c21.76,0,39.36-17.601,39.36-39.36
		C289.12,381.44,271.52,363.68,249.76,363.68z M249.76,416.16c-7.2,0-13.12-5.92-13.12-13.12s5.92-13.12,13.12-13.12
		c7.2,0,13.12,5.92,13.12,13.12S256.96,416.16,249.76,416.16z"/>
	<path d="M678.24,214.08c2.72-11.04,4.16-22.4,4.16-33.92C682.4,100.64,617.76,36,538.24,36c-79.521,0-144.16,64.64-144.16,144.16
		c0,9.44,0.96,18.72,2.72,27.68c-11.68,2.72-23.36,5.6-34.399,8.96c-26.721-39.04-71.36-62.88-118.88-62.88
		c-41.76,0-83.36,21.6-83.36,21.6l32.8,12.32c33.12,12.48,58.88,38.88,70.24,72c-47.68,28.48-84.32,64.16-106.56,104H105.6V547.2
		h50.88c28,50.08,79.2,93.76,145.76,124.319V783.2H459.52v-69.28c40,4.48,78.561,4.96,117.921,1.44v67.84H734.72V677.44
		C849.92,629.28,918.4,546.88,918.4,455.52C918.4,348.64,824.48,255.04,678.24,214.08z M538.24,62.24
		c65.12,0,117.92,52.96,117.92,117.92c0,29.28-10.561,57.12-30.08,78.72h-74.72v-15.52c15.199-5.44,26.239-19.84,26.239-36.96
		c0-21.76-17.6-39.36-39.359-39.36c-7.2,0-13.12-5.92-13.12-13.12c0-7.2,5.92-13.12,13.12-13.12c7.199,0,13.12,5.92,13.12,13.12
		H577.6c0-17.12-11.04-31.52-26.239-36.96v-15.52h-26.24v15.52c-15.2,5.44-26.24,19.84-26.24,36.96
		c0,21.76,17.601,39.36,39.36,39.36c7.2,0,13.12,5.92,13.12,13.12c0,7.2-5.92,13.12-13.12,13.12s-13.12-5.92-13.12-13.12h-26.24
		c0,17.12,11.04,31.52,26.24,36.96v15.52h-74.88c-19.36-21.6-30.08-49.28-30.08-78.72C420.16,115.04,473.12,62.24,538.24,62.24z
		 M716.96,656.48l-8.32,3.359v97.28h-104.8v-70.88l-14.56,1.6c-46.88,5.28-92.96,4.96-140.96-1.76L433.439,684v72.96h-104.8V654.4
		l-7.84-3.36c-68-29.6-119.36-73.12-144.48-122.72l-3.68-7.2h-40.8V390.08h40.64c0,0,30.4-72.32,112.48-112.48l8.8-4.96l-2.4-9.76
		c-8.48-33.6-28.8-62.72-56.64-82.24c44.48-3.2,88,19.68,110.56,58.4l5.279,9.12c0,0,38.561-11.52,53.601-15.04
		c3.52,8.96,8,17.6,13.28,25.76h-23.36v26.24h288.48v-26.24H659.2c4.16-6.4,7.68-12.96,10.72-19.84
		c133.44,37.12,222.4,123.04,222.4,216.64C892.16,537.76,826.72,612.96,716.96,656.48z"/>
</g>
</svg>
